PathFileType	4	(X/Y/Z)	Walk1_0-155.trc
DataRate	CameraRate	NumFrames	NumMarkers	Units	OrigDataRate	OrigDataStartFrame	OrigNumFrames
30	30	9	22	m	30	96	155
Frame#	Time	Hip			RHip			RKnee			RAnkle			RBigToe			RSmallToe			RHeel			LHip			LKnee			LAnkle			LBigToe			LSmallToe			LHeel			Neck			Head			Nose			RShoulder			RElbow			RWrist			LShoulder			LElbow			LWrist		
		X1	Y1	Z1	X2	Y2	Z2	X3	Y3	Z3	X4	Y4	Z4	X5	Y5	Z5	X6	Y6	Z6	X7	Y7	Z7	X8	Y8	Z8	X9	Y9	Z9	X10	Y10	Z10	X11	Y11	Z11	X12	Y12	Z12	X13	Y13	Z13	X14	Y14	Z14	X15	Y15	Z15	X16	Y16	Z16	X17	Y17	Z17	X18	Y18	Z18	X19	Y19	Z19	X20	Y20	Z20	X21	Y21	Z21	X22	Y22	Z22
97	3.2333333333333334	0.13155606583409513	0.9108055515797606	0.34278773068068114	0.13748507697795062	0.8883217839122971	0.45352423041788525	0.29353768149491294	0.561598743720831	0.46431179925832033	-0.010737843421623025	0.2923755832033088	0.4262463151021691	0.059869410065682915	0.08006219267332196	0.4488377549078563	-0.0009700498369759787	0.10285342599923876	0.4755211893256971	-0.09790010379414353	0.2652307821850602	0.4044808818355421	0.126400741451895	0.8920249710841099	0.2269255806082167	0.15764438175898499	0.5114975124620257	0.2526356761611274	0.11610166924564878	0.11752126618006306	0.27913845291923595	0.3260012646449102	0.049663406077349995	0.29328326718226955	0.2858398502409036	0.04031098917844896	0.23261101245979227	0.06279783878324588	0.03781485299117961	0.28067677578664846	0.06126874148622057	1.599686883066895	0.3289185289641685	0.12517204815984248	1.8443532511046912	0.3342930987957402	0.24249762448880377	1.6930436369181612	0.318192189205771	0.021603206287031242	1.4705496329841967	0.518266893204392	0.059658008374220514	1.1624454487040092	0.5663957363170153	0.10836728942793869	0.9133266104364851	0.6098641340779489	0.07550688413089798	1.471927128185224	0.1651600378484238	0.1394147354201466	1.1666437130247556	0.08884817278955685	0.23390142557764376	0.9171124491178033	0.07532543443015853
98	3.2666666666666666	0.1656183839288083	0.914610167240361	0.34216320842950665	0.17376012827988663	0.8915038820853126	0.45524658636886783	0.354693062699995	0.5731973553753428	0.46237263580178223	0.09979375032609183	0.26983011501672977	0.4308637998002916	0.20539409844010495	0.08759443105960735	0.45261557813096115	0.14842463176819093	0.10083261089179904	0.47997030849667277	0.01976978263133667	0.22665985886528364	0.40958071613367314	0.15562150771638306	0.893127260427057	0.22696928785483544	0.16459883837961703	0.5096199603430243	0.2511048861594616	0.1174204496220812	0.11775819751299589	0.27978888631616733	0.3249679498857505	0.05171902579183898	0.29139717946861227	0.2852906282849716	0.04083445486330759	0.23153954471934476	0.06721317018516153	0.03781717260298207	0.280597852671272	0.10255846078590986	1.6047846482749966	0.3297207082378574	0.17335738193603184	1.8490642087720919	0.34064766636946436	0.2962723903727388	1.6941042616600137	0.3147910143955468	0.05918115010534056	1.4757388406818357	0.5192738326607247	0.07929659232338947	1.1681701497076085	0.5676023197165364	0.11280994100819657	0.9164850665570743	0.6147543013505982	0.11689863780509659	1.4788825364346705	0.16617658276041955	0.1929078471629501	1.1754263646412895	0.08672004146024372	0.31156711915578605	0.931011964982066	0.08120152091273865
99	3.3	0.2006074981755513	0.9160698698512021	0.3428722079989038	0.2105881150148261	0.8922813328245615	0.4570247667113787	0.404636753997368	0.5771877344024936	0.4597224583318549	0.2141150674596469	0.24199825663520738	0.43562539471060946	0.35517290428521764	0.09364667778404524	0.4544162300275396	0.30271130579369765	0.09650018249284986	0.4843907567342025	0.14421459746687326	0.1834554191210695	0.41678828004052093	0.18554673298516935	0.8922622810975075	0.22808242083744967	0.1733123453303072	0.5079409849429721	0.2513524626021111	0.11975046785507892	0.11816896413238516	0.28059909778702596	0.3243667765845457	0.052945722642665276	0.28966833189258656	0.2861860426313779	0.04167769400436201	0.2303274012650052	0.07091513984308621	0.0372944022842804	0.28105372911660803	0.1443140191401571	1.6072773100791315	0.3308125872762084	0.2232477857229694	1.852573997967763	0.35064546410151987	0.3489667046755049	1.6921836409095201	0.31246884370324035	0.0977255224324019	1.478401902137439	0.5206322873661164	0.09895154977433417	1.1725108771296142	0.5700665669758463	0.12178912756176563	0.919076223310934	0.6193182564545241	0.15953216581675794	1.4840833292999605	0.1681570496673973	0.2428502054887431	1.1826640722738855	0.08464923299017998	0.3853828420221986	0.9459637168695031	0.08804283002862512
100	3.333333333333333	0.23734946203731003	0.9151918445128882	0.3449600496396284	0.24897633508182732	0.8907267305493893	0.45883858394241034	0.44573660939832493	0.5734662549795329	0.45722200789338724	0.3295257058948583	0.21406932467973508	0.4408503582755981	0.5000348945059715	0.09975465236462766	0.4551732431914688	0.45189554443936497	0.09352437531093821	0.48888824203283915	0.2717595033173925	0.1429884199103182	0.4255795565884643	0.21734599458540374	0.8898434827168946	0.23041706595273007	0.18511722215123252	0.5062383145780034	0.25281356519348813	0.12229422870230129	0.11860837956237323	0.2816547012179214	0.3243319431216598	0.05283680471165175	0.28830520351465533	0.2878389610388564	0.04263776672620986	0.22915664836582628	0.07248236701870148	0.03632235330597722	0.28243665786967165	0.18670160708111702	1.6071071066657694	0.33214626361104466	0.2739908500058453	1.8544660639490773	0.3623950593149674	0.40008660843076044	1.6878582188934659	0.31114085701162314	0.13760904685431985	1.4782211528975824	0.5221791626347907	0.12045228756911275	1.175015891140358	0.5729517414248215	0.13511256451950604	0.920357261615772	0.6235367865524625	0.20307845423088544	1.4870865182372859	0.170689092092576	0.2901799643836496	1.1882341715369418	0.08309452852708567	0.45450746943967046	0.961456341326644	0.09519306927226635
101	3.3666666666666667	0.2759284080649587	0.9121590535545565	0.34823653067326454	0.2890675433889489	0.887222544899302	0.46100460634711726	0.4800879984496832	0.5640042155181229	0.45553584839456523	0.4418164904384984	0.1902696869222332	0.4464306533386068	0.6323502257932269	0.10757540149104992	0.4559548786115213	0.5878007110538332	0.09420862876776157	0.49335032381755917	0.39698997376367035	0.11043699980986037	0.43484302516884155	0.25169648199357536	0.8861356143756942	0.23399521509548737	0.20058869413368613	0.5045561805456089	0.2551631228478986	0.12413892248767655	0.11882168287617664	0.2831679421125425	0.32524222227967503	0.05137543727091584	0.2874754991745818	0.28891778585889777	0.043411282870824845	0.22876719522036193	0.07123576738058933	0.03551533178130175	0.284473609597998	0.22983340267076643	1.6044474552789518	0.33390636866701906	0.3239452291344306	1.8542651187330073	0.3734563668098448	0.44880654260380226	1.681947654862671	0.3114687053438588	0.17903775130198304	1.4753798309934618	0.5238846323169088	0.14537662236622806	1.1753435631409173	0.5756613988113821	0.1524951182579476	0.9197368195277397	0.627511240097322	0.24676122874673007	1.4875656597134226	0.17314268920176704	0.3357804695882996	1.1918626268089345	0.08267434396129372	0.5182554785237139	0.9761117454614943	0.10199985362591293
102	3.4	0.31611550571136415	0.9072803709867192	0.3524197764888045	0.33063560546944054	0.8824158959394076	0.4640487850734203	0.5103374054324676	0.5522350450045007	0.45473457813271567	0.5453815935411873	0.17235507058614802	0.4514433390027173	0.7471974625849349	0.11704214511541351	0.45713223032744077	0.7050065288008318	0.09796626199683924	0.49724812338078606	0.5128306051181885	0.0872283963258184	0.4428478699940084	0.28884174350176406	0.8812511151667332	0.23868632517578986	0.21980621347595777	0.5032975307204314	0.2583989981542346	0.12509501831302003	0.11891936403586331	0.2852991910811669	0.3270809624446987	0.04889145912570474	0.2873538516740324	0.28831465881464535	0.04357634415469567	0.22957671667451143	0.06770016845106645	0.03591805954939138	0.28668833006655553	0.27375860093248766	1.5996125167274045	0.33649598662384866	0.3715482642279391	1.851734026903704	0.3820701264688245	0.4944688419802278	1.6751470739895244	0.314261279478077	0.22193526411059325	1.4703549600839885	0.5258966619965286	0.17472951692736702	1.1733298186084005	0.5781608718576474	0.17409587615773853	0.9168849585527387	0.6314064326986131	0.2897058143182979	1.485398628892396	0.1749099230916371	0.3803585226870239	1.1930480196205864	0.08384076262222429	0.576554733442101	0.9876254196560728	0.10814724051658055
103	3.433333333333333	0.3579483266772691	0.900990797066276	0.3573144759904166	0.37374268100200153	0.8769344898159194	0.4684282465520969	0.5404381708056816	0.5412507467277129	0.4545919222767315	0.6347129491118512	0.15951534348473032	0.4546231862455199	0.8417463374523295	0.12542418561467825	0.4583599994051881	0.8010490635365951	0.10174215473190029	0.5000868861413056	0.6120294800339785	0.07144343558151064	0.4478007015307531	0.32889267807838674	0.8752969341607422	0.24427377797513045	0.24320496332538347	0.5027093389271942	0.2623454873700834	0.12610740541636714	0.11979745970658655	0.28807606642877137	0.3288227562612339	0.045640285099613195	0.28821055463392514	0.2856464606803129	0.04254892484366156	0.23100314816296946	0.06343179098181444	0.038761530695166614	0.28884546067908246	0.3186002287084681	1.5930591063571464	0.3404493356382482	0.41594012658420293	1.847028483985241	0.38766243806925677	0.5369275612364816	1.668033812567229	0.3199258050489949	0.266083668309747	1.4637207954942373	0.5285130480562441	0.20904565872044278	1.1690056998108145	0.5808271079114581	0.20047344066062536	0.9118486893963236	0.6353859986388184	0.3314580562942021	1.4808347793251204	0.17582735632598898	0.42445587740739704	1.1913480140764914	0.0867980718083485	0.6296929895957217	0.9937633452512563	0.11357511064107342
104	3.466666666666667	0.4018528118063524	0.8938702982003202	0.36280362559819684	0.41887602271211755	0.8711036165884524	0.4742025900265481	0.5742767554143311	0.5322348319050637	0.4551369950246171	0.7063845403768038	0.14974554075386265	0.45534628977542824	0.9146512546830339	0.12864285860691296	0.459184635744057	0.8759845767667127	0.10179459429417727	0.5017800823297183	0.6894266808716212	0.06013381901752097	0.44896793001023694	0.3720946739584355	0.8684576932586625	0.2506461521119101	0.27206847892647007	0.5024248618252729	0.2664649584028574	0.129177288752125	0.12313386805863089	0.29129107151026995	0.32920735717392396	0.04150594173319412	0.29005659617371404	0.2813136982696796	0.03981285592228627	0.2321474076796623	0.060720724334402475	0.045555811226605306	0.2908552428477193	0.3646233544845234	1.5854042011508998	0.34633017797693055	0.45686322377429295	1.840544687036202	0.3905255639606047	0.5765789946441708	1.6611709230380298	0.32837768906500886	0.3111876870832935	1.4560857027754452	0.5320050383629273	0.24846675746790786	1.162636109370603	0.5841176067507223	0.23233917624089037	0.9050638627659251	0.6395277204028271	0.3725771590711088	1.4744495901375478	0.1766205533349092	0.4684449752476767	1.1867472655446405	0.09160289864086002	0.6779507300907713	0.9932203635952092	0.11834943525142673
105	3.5	0.44832796778499845	0.8866371248008337	0.3688009868594168	0.466458458652999	0.8650308923778378	0.4809434559196727	0.6137578955093165	0.524828667718414	0.45664909318637964	0.760014139499927	0.14137867432119702	0.4540662563290608	0.9669782445704574	0.12377360932301683	0.45920139394083803	0.9316145176156314	0.09568034843948087	0.502571638616757	0.7433336604014107	0.05155238599626269	0.44718910541409246	0.4187680998012295	0.8611245074410033	0.25784253407576435	0.30831653303612	0.5017486079737755	0.2701518642934253	0.13704673596593658	0.13087061901030414	0.2944837321477941	0.32771540005963773	0.03611224723105951	0.29242484511045297	0.27642291425453697	0.03540136229543524	0.23282139872740862	0.062475371088003114	0.05808040962697503	0.29259038163083106	0.41215303454799507	1.5773972184103202	0.3546251991412038	0.4943409030650004	1.8328005778629286	0.39132255749454353	0.6143729828385811	1.65519558996413	0.33898877933930854	0.35684044162497364	1.4481308211047592	0.5364024425160779	0.2927278896122482	1.1547700423410587	0.5883259928651847	0.2703913248728449	0.8972376746465965	0.6438569750201308	0.4147018382384414	1.4669590746951042	0.1788851256235591	0.5124098402403845	1.179785896528144	0.09821284086721964	0.7214321354022775	0.9858868144998619	0.12262434010216133
